<svg width="32" height="32" viewBox="0 0 32 32" fill="none" xmlns="http://www.w3.org/2000/svg">
<g clip-path="url(#clip0_543_408)">
<path d="M16.0001 2.66669C8.64008 2.66669 2.66675 8.64002 2.66675 16C2.66675 23.36 8.64008 29.3334 16.0001 29.3334C23.3601 29.3334 29.3334 23.36 29.3334 16C29.3334 8.64002 23.3601 2.66669 16.0001 2.66669ZM16.0001 8.00002C18.5734 8.00002 20.6667 10.0934 20.6667 12.6667C20.6667 15.24 18.5734 17.3334 16.0001 17.3334C13.4267 17.3334 11.3334 15.24 11.3334 12.6667C11.3334 10.0934 13.4267 8.00002 16.0001 8.00002ZM16.0001 26.6667C13.2934 26.6667 10.0934 25.5734 7.81341 22.8267C10.0667 21.0667 12.9067 20 16.0001 20C19.0934 20 21.9334 21.0667 24.1867 22.8267C21.9067 25.5734 18.7067 26.6667 16.0001 26.6667Z" fill="url(#paint0_linear_543_408)"/>
</g>
<defs>
<linearGradient id="paint0_linear_543_408" x1="16.0001" y1="2.66669" x2="16.0001" y2="29.3334" gradientUnits="userSpaceOnUse">
<stop stop-color="#9B51E0"/>
<stop offset="1" stop-color="#720ECF"/>
</linearGradient>
<clipPath id="clip0_543_408">
<rect width="32" height="32" fill="white"/>
</clipPath>
</defs>
</svg>
