<svg xmlns="http://www.w3.org/2000/svg" width="122" height="93" fill="none"><path fill="#CCC" d="M91.25.75C80.525.75 68.975 2.95 61 9 53.025 2.95 41.475.75 30.75.75c-7.975 0-16.445 1.21-23.54 4.345C3.195 6.91.5 10.815.5 15.27v62.04c0 7.15 6.71 12.43 13.64 10.67C19.53 86.605 25.25 86 30.75 86c8.58 0 17.71 1.43 25.08 5.06 3.3 1.65 7.04 1.65 10.285 0 7.37-3.685 16.5-5.06 25.08-5.06 5.5 0 11.22.605 16.61 1.98 6.93 1.815 13.64-3.465 13.64-10.67V15.27c0-4.455-2.695-8.36-6.71-10.175C107.695 1.96 99.225.75 91.25.75Zm19.25 70.015c0 3.465-3.19 5.995-6.6 5.39-4.125-.77-8.415-1.1-12.65-1.1-9.35 0-22.825 3.575-30.25 8.25V20c7.425-4.675 20.9-8.25 30.25-8.25 5.06 0 10.065.495 14.85 1.54 2.53.55 4.4 2.805 4.4 5.39v52.085Z"/><path fill="#CCC" d="M71.89 36.555c-1.76 0-3.355-1.1-3.905-2.86-.715-2.145.495-4.51 2.64-5.17 8.47-2.75 19.415-3.63 29.48-2.475 2.255.275 3.905 2.31 3.63 4.565-.275 2.255-2.31 3.905-4.565 3.63-8.91-1.045-18.645-.22-26.015 2.145-.44.055-.88.165-1.265.165ZM71.89 51.185c-1.76 0-3.355-1.1-3.905-2.86-.715-2.145.495-4.51 2.64-5.17 8.415-2.75 19.415-3.63 29.48-2.475 2.255.275 3.905 2.31 3.63 4.565-.275 2.255-2.31 3.905-4.565 3.63-8.91-1.045-18.645-.22-26.015 2.145-.44.11-.88.165-1.265.165ZM71.89 65.815c-1.76 0-3.355-1.1-3.905-2.86-.715-2.145.495-4.51 2.64-5.17 8.415-2.75 19.415-3.63 29.48-2.475 2.255.275 3.905 2.31 3.63 4.565-.275 2.255-2.31 3.85-4.565 3.63-8.91-1.045-18.645-.22-26.015 2.145-.44.11-.88.165-1.265.165Z"/></svg>