<svg xmlns="http://www.w3.org/2000/svg" width="22" height="22" fill="none" viewBox="0 0 32 32"><g clip-path="url(#a)"><path fill="url(#b)" d="M23.333 6c-2.6 0-5.4.533-7.333 2-1.933-1.467-4.733-2-7.333-2-1.934 0-3.987.293-5.707 1.053-.973.44-1.627 1.387-1.627 2.467v15.04c0 1.733 1.627 3.013 3.307 2.587 1.307-.334 2.693-.48 4.027-.48 2.08 0 4.293.346 6.08 1.226.8.4 1.706.4 2.493 0 1.787-.893 4-1.226 6.08-1.226 1.333 0 2.72.146 4.027.48 1.68.44 3.306-.84 3.306-2.587V9.52c0-1.08-.653-2.027-1.626-2.467C27.32 6.293 25.267 6 23.333 6ZM28 22.973c0 .84-.773 1.454-1.6 1.307-1-.187-2.04-.267-3.067-.267-2.266 0-5.533.867-7.333 2V10.667c1.8-1.134 5.067-2 7.333-2 1.227 0 2.44.12 3.6.373.614.133 1.067.68 1.067 1.307v12.626Z"/><path fill="url(#c)" d="M18.64 14.68a.984.984 0 0 1-.947-.693.991.991 0 0 1 .64-1.254c2.054-.666 4.707-.88 7.147-.6.547.067.947.56.88 1.107-.067.547-.56.947-1.107.88-2.16-.253-4.52-.053-6.306.52-.107.013-.214.04-.307.04Z"/><path fill="url(#d)" d="M18.64 18.227a.984.984 0 0 1-.947-.694.991.991 0 0 1 .64-1.253c2.04-.667 4.707-.88 7.147-.6.547.067.947.56.88 1.107-.067.546-.56.946-1.107.88-2.16-.254-4.52-.054-6.306.52-.107.026-.214.04-.307.04Z"/><path fill="url(#e)" d="M18.64 21.773a.984.984 0 0 1-.947-.693.991.991 0 0 1 .64-1.253c2.04-.667 4.707-.88 7.147-.6.547.066.947.56.88 1.106-.067.547-.56.934-1.107.88-2.16-.253-4.52-.053-6.306.52-.107.027-.214.04-.307.04Z"/></g><defs><linearGradient id="b" x1="15.993" x2="15.993" y1="6" y2="28.193" gradientUnits="userSpaceOnUse"><stop stop-color="#9B51E0"/><stop offset="1" stop-color="#720ECF"/></linearGradient><linearGradient id="c" x1="22.005" x2="22.005" y1="12.013" y2="14.68" gradientUnits="userSpaceOnUse"><stop stop-color="#9B51E0"/><stop offset="1" stop-color="#720ECF"/></linearGradient><linearGradient id="d" x1="22.005" x2="22.005" y1="15.56" y2="18.227" gradientUnits="userSpaceOnUse"><stop stop-color="#9B51E0"/><stop offset="1" stop-color="#720ECF"/></linearGradient><linearGradient id="e" x1="22.005" x2="22.005" y1="19.107" y2="21.773" gradientUnits="userSpaceOnUse"><stop stop-color="#9B51E0"/><stop offset="1" stop-color="#720ECF"/></linearGradient><clipPath id="a"><path fill="#fff" d="M0 0h32v32H0z"/></clipPath></defs></svg>