<svg xmlns="http://www.w3.org/2000/svg" width="160" height="160" fill="none"><circle cx="80" cy="80" r="79" fill="#F7F7F7" stroke="#9B51E0" stroke-width="2"/><path fill="url(#a)" d="M80 103.333c-.722 0-1.32-.236-1.792-.708s-.708-1.069-.708-1.792V82.5H59.166c-.722 0-1.319-.236-1.791-.708-.472-.473-.709-1.07-.709-1.792s.237-1.32.709-1.792 1.07-.708 1.791-.708H77.5V59.167c0-.723.236-1.32.708-1.792s1.07-.708 1.792-.708 1.32.236 1.791.708c.473.472.709 1.07.709 1.792V77.5h18.333c.722 0 1.32.236 1.792.708s.708 1.07.708 1.792-.236 1.32-.708 1.792-1.07.708-1.792.708H82.5v18.333c0 .723-.236 1.32-.709 1.792-.472.472-1.069.708-1.791.708Z"/><defs><linearGradient id="a" x1="80" x2="80" y1="56.667" y2="103.333" gradientUnits="userSpaceOnUse"><stop stop-color="#9B51E0"/><stop offset="1" stop-color="#720ECF"/></linearGradient></defs></svg>