<svg width="22" height="22" viewBox="0 0 32 32" fill="none" xmlns="http://www.w3.org/2000/svg">
<g clip-path="url(#clip0_1331_5184)">
<path d="M26.2133 5.32002C22.6933 2.92002 18.3466 4.04002 16 6.78668C13.6533 4.04002 9.30663 2.90668 5.78663 5.32002C3.91996 6.60002 2.74663 8.76002 2.66663 11.04C2.47996 16.2134 7.06663 20.36 14.0666 26.72L14.2 26.84C15.2133 27.76 16.7733 27.76 17.7866 26.8267L17.9333 26.6933C24.9333 20.3467 29.5066 16.2 29.3333 11.0267C29.2533 8.76002 28.08 6.60002 26.2133 5.32002ZM16.1333 24.7333L16 24.8667L15.8666 24.7333C9.51996 18.9867 5.33329 15.1867 5.33329 11.3334C5.33329 8.66668 7.33329 6.66668 9.99996 6.66668C12.0533 6.66668 14.0533 7.98668 14.76 9.81335H17.2533C17.9466 7.98668 19.9466 6.66668 22 6.66668C24.6666 6.66668 26.6666 8.66668 26.6666 11.3334C26.6666 15.1867 22.48 18.9867 16.1333 24.7333Z" fill="url(#paint0_linear_1331_5184)"/>
</g>
<defs>
<linearGradient id="paint0_linear_1331_5184" x1="15.9996" y1="3.99915" x2="15.9996" y2="27.5284" gradientUnits="userSpaceOnUse">
<stop stop-color="#9B51E0"/>
<stop offset="1" stop-color="#720ECF"/>
</linearGradient>
<clipPath id="clip0_1331_5184">
<rect width="32" height="32" fill="white"/>
</clipPath>
</defs>
</svg>
