<svg xmlns="http://www.w3.org/2000/svg" width="440" height="469" fill="none"><path fill="url(#a)" d="M171.964 258.317c0-6.58 1.096-12.316 3.29-17.209 2.193-4.893 4.892-9.279 8.098-13.16a92.447 92.447 0 0 1 10.882-10.629 332.64 332.64 0 0 0 10.882-9.87c3.375-3.374 6.074-6.917 8.099-10.629 2.193-3.712 3.29-8.014 3.29-12.907 0-8.098-3.206-14.678-9.617-19.74-6.411-5.061-15.269-7.592-26.573-7.592-10.123 0-18.896 1.687-26.32 5.062-7.423 3.374-13.75 8.351-18.98 14.931l-18.475-13.16c7.086-8.942 16.113-15.859 27.079-20.752 10.967-5.062 23.789-7.592 38.468-7.592 12.147 0 22.692 1.856 31.634 5.567 8.942 3.543 15.859 8.689 20.752 15.438 5.062 6.58 7.592 14.594 7.592 24.042 0 7.086-1.096 13.16-3.29 18.221-2.193 5.062-4.977 9.533-8.351 13.413a110.466 110.466 0 0 1-10.882 10.883 307.13 307.13 0 0 0-10.629 10.123c-3.375 3.374-6.159 7.086-8.352 11.135-2.193 4.049-3.29 8.858-3.29 14.425h-25.307Zm12.906 57.448c-4.724 0-8.688-1.602-11.894-4.808-3.037-3.206-4.555-7.002-4.555-11.389 0-4.724 1.518-8.604 4.555-11.641 3.206-3.037 7.17-4.555 11.894-4.555 4.725 0 8.605 1.518 11.642 4.555 3.037 3.037 4.555 6.917 4.555 11.641 0 4.387-1.518 8.183-4.555 11.389-3.037 3.206-6.917 4.808-11.642 4.808Z"/><path fill="url(#b)" d="M311.728 86.433c0-4.614.769-8.637 2.307-12.068 1.539-3.432 3.432-6.508 5.68-9.23a64.7 64.7 0 0 1 7.632-7.454 234.376 234.376 0 0 0 7.631-6.921c2.367-2.367 4.26-4.852 5.68-7.455 1.538-2.603 2.307-5.62 2.307-9.051 0-5.68-2.248-10.294-6.744-13.844-4.497-3.55-10.708-5.324-18.636-5.324-7.099 0-13.252 1.183-18.458 3.55-5.206 2.366-9.643 5.856-13.311 10.47l-12.956-9.228c4.969-6.271 11.299-11.122 18.99-14.554C299.541 1.774 308.534 0 318.827 0c8.52 0 15.915 1.302 22.186 3.905 6.271 2.484 11.122 6.093 14.553 10.826 3.55 4.615 5.325 10.235 5.325 16.86 0 4.97-.77 9.23-2.308 12.78-1.538 3.549-3.49 6.684-5.857 9.406a77.428 77.428 0 0 1-7.631 7.631 216.09 216.09 0 0 0-7.454 7.1c-2.367 2.366-4.319 4.97-5.857 7.809-1.539 2.84-2.308 6.212-2.308 10.116h-17.748Zm9.052 40.289c-3.313 0-6.094-1.124-8.342-3.372-2.13-2.249-3.195-4.911-3.195-7.987 0-3.313 1.065-6.035 3.195-8.164 2.248-2.13 5.029-3.195 8.342-3.195 3.313 0 6.034 1.065 8.164 3.195 2.13 2.129 3.195 4.851 3.195 8.164 0 3.076-1.065 5.738-3.195 7.987-2.13 2.248-4.851 3.372-8.164 3.372Z"/><path fill="url(#c)" d="M72.918 382.819c0-3.04.507-5.69 1.52-7.95 1.014-2.26 2.26-4.287 3.742-6.079a42.662 42.662 0 0 1 5.027-4.911 153.415 153.415 0 0 0 5.027-4.559c1.559-1.559 2.806-3.196 3.741-4.911 1.013-1.714 1.52-3.702 1.52-5.962 0-3.741-1.48-6.781-4.443-9.119-2.961-2.338-7.053-3.508-12.275-3.508-4.677 0-8.73.78-12.16 2.339-3.429 1.558-6.352 3.858-8.768 6.897l-8.534-6.079c3.273-4.131 7.443-7.326 12.51-9.587 5.066-2.338 10.99-3.507 17.77-3.507 5.612 0 10.483.857 14.614 2.572 4.13 1.637 7.326 4.014 9.587 7.132 2.338 3.039 3.507 6.742 3.507 11.106 0 3.274-.506 6.08-1.52 8.418-1.013 2.338-2.299 4.404-3.858 6.196a50.994 50.994 0 0 1-5.027 5.028 141.59 141.59 0 0 0-4.91 4.676 22.234 22.234 0 0 0-3.858 5.144c-1.014 1.871-1.52 4.092-1.52 6.664H72.918Zm5.963 26.539c-2.182 0-4.014-.74-5.495-2.221-1.403-1.481-2.104-3.235-2.104-5.261 0-2.183.701-3.975 2.104-5.378 1.481-1.403 3.313-2.105 5.495-2.105s3.975.702 5.378 2.105 2.104 3.195 2.104 5.378c0 2.026-.701 3.78-2.104 5.261-1.403 1.481-3.196 2.221-5.378 2.221Z"/><path fill="url(#d)" d="M191.014 436.722c0-3.621.604-6.778 1.811-9.47 1.207-2.693 2.692-5.107 4.456-7.242a50.827 50.827 0 0 1 5.989-5.849 184.708 184.708 0 0 0 5.988-5.431c1.857-1.857 3.342-3.807 4.456-5.849 1.207-2.043 1.811-4.41 1.811-7.103 0-4.456-1.764-8.077-5.292-10.862-3.528-2.786-8.402-4.178-14.623-4.178-5.57 0-10.398.928-14.483 2.785-4.085 1.857-7.567 4.596-10.445 8.217l-10.166-7.242c3.899-4.921 8.866-8.727 14.901-11.42 6.035-2.785 13.091-4.178 21.168-4.178 6.685 0 12.487 1.022 17.408 3.064 4.921 1.95 8.727 4.782 11.419 8.495 2.786 3.621 4.178 8.031 4.178 13.23 0 3.9-.603 7.242-1.81 10.027-1.207 2.786-2.739 5.246-4.596 7.381a60.776 60.776 0 0 1-5.988 5.989 168.573 168.573 0 0 0-5.849 5.57 26.454 26.454 0 0 0-4.596 6.128c-1.207 2.228-1.81 4.874-1.81 7.938h-13.927Zm7.103 31.612c-2.6 0-4.781-.882-6.545-2.646-1.672-1.764-2.507-3.853-2.507-6.266 0-2.6.835-4.735 2.507-6.407 1.764-1.671 3.945-2.506 6.545-2.506 2.599 0 4.735.835 6.406 2.506 1.671 1.672 2.507 3.807 2.507 6.407 0 2.413-.836 4.502-2.507 6.266-1.671 1.764-3.807 2.646-6.406 2.646Z"/><path fill="url(#e)" d="M388.814 250.38c0-4.738.79-8.869 2.37-12.392 1.579-3.524 3.523-6.683 5.832-9.477a66.47 66.47 0 0 1 7.836-7.654 239.71 239.71 0 0 0 7.837-7.108c2.43-2.43 4.374-4.981 5.832-7.654 1.579-2.673 2.369-5.771 2.369-9.295 0-5.832-2.309-10.57-6.926-14.215-4.616-3.645-10.995-5.467-19.135-5.467-7.29 0-13.608 1.215-18.954 3.645-5.346 2.43-9.902 6.014-13.668 10.752l-13.304-9.477c5.103-6.439 11.603-11.42 19.5-14.944 7.897-3.645 17.131-5.467 27.701-5.467 8.748 0 16.342 1.336 22.781 4.009 6.439 2.552 11.421 6.257 14.944 11.117 3.645 4.739 5.468 10.51 5.468 17.314 0 5.102-.79 9.476-2.37 13.121-1.579 3.645-3.584 6.865-6.014 9.659a79.519 79.519 0 0 1-7.836 7.837 222.264 222.264 0 0 0-7.655 7.29c-2.43 2.43-4.434 5.103-6.014 8.018-1.579 2.916-2.369 6.379-2.369 10.388h-18.225Zm9.295 41.37c-3.402 0-6.257-1.154-8.566-3.462-2.186-2.309-3.28-5.043-3.28-8.201 0-3.402 1.094-6.197 3.28-8.384 2.309-2.187 5.164-3.28 8.566-3.28 3.402 0 6.196 1.093 8.383 3.28 2.187 2.187 3.281 4.982 3.281 8.384 0 3.158-1.094 5.892-3.281 8.201-2.187 2.308-4.981 3.462-8.383 3.462Z"/><path fill="url(#f)" d="M17.946 244.547c0-2.131.355-3.988 1.065-5.572a18.585 18.585 0 0 1 2.623-4.262 29.944 29.944 0 0 1 3.523-3.441 108.678 108.678 0 0 0 3.524-3.196c1.092-1.093 1.966-2.24 2.622-3.442.71-1.202 1.065-2.595 1.065-4.179 0-2.622-1.038-4.753-3.114-6.392-2.076-1.639-4.944-2.458-8.604-2.458-3.278 0-6.118.546-8.522 1.639-2.404 1.092-4.452 2.704-6.146 4.835L0 213.817c2.294-2.895 5.217-5.135 8.768-6.719 3.551-1.639 7.703-2.458 12.456-2.458 3.933 0 7.348.601 10.243 1.802 2.895 1.148 5.135 2.814 6.72 4.999 1.638 2.131 2.458 4.726 2.458 7.785 0 2.294-.355 4.261-1.066 5.9-.71 1.639-1.611 3.086-2.704 4.343a35.856 35.856 0 0 1-3.523 3.524 99.88 99.88 0 0 0-3.442 3.277 15.587 15.587 0 0 0-2.704 3.606c-.71 1.311-1.066 2.868-1.066 4.671h-8.194Zm4.18 18.601c-1.53 0-2.814-.519-3.852-1.557-.984-1.038-1.475-2.267-1.475-3.687 0-1.53.491-2.786 1.475-3.77 1.038-.983 2.322-1.475 3.851-1.475 1.53 0 2.786.492 3.77 1.475.983.984 1.475 2.24 1.475 3.77 0 1.42-.492 2.649-1.475 3.687-.984 1.038-2.24 1.557-3.77 1.557Z"/><path fill="url(#g)" d="M44.59 112.738c0-1.52.254-2.845.76-3.975a13.278 13.278 0 0 1 1.871-3.04 21.326 21.326 0 0 1 2.514-2.455 76.04 76.04 0 0 0 2.513-2.28c.78-.779 1.403-1.597 1.87-2.455.508-.857.76-1.851.76-2.981 0-1.87-.74-3.39-2.22-4.56-1.481-1.169-3.527-1.753-6.139-1.753-2.338 0-4.364.39-6.079 1.169-1.715.78-3.176 1.929-4.384 3.449l-4.267-3.04c1.636-2.066 3.721-3.663 6.254-4.793 2.534-1.17 5.495-1.754 8.886-1.754 2.806 0 5.241.428 7.307 1.286 2.065.818 3.663 2.007 4.793 3.566 1.17 1.52 1.754 3.37 1.754 5.553 0 1.637-.254 3.04-.76 4.209a11.876 11.876 0 0 1-1.93 3.098 25.613 25.613 0 0 1-2.513 2.514 70.367 70.367 0 0 0-2.455 2.338 11.11 11.11 0 0 0-1.929 2.572c-.507.935-.76 2.046-.76 3.332H44.59Zm2.982 13.269c-1.091 0-2.007-.37-2.748-1.11a3.697 3.697 0 0 1-1.052-2.631c0-1.091.35-1.987 1.052-2.689.74-.701 1.657-1.052 2.748-1.052 1.09 0 1.987.351 2.689 1.052.701.702 1.052 1.598 1.052 2.689 0 1.014-.35 1.89-1.052 2.631-.702.74-1.598 1.11-2.69 1.11Z"/><path fill="url(#h)" d="M155.158 57.218c0-1.699.284-3.18.85-4.443a14.827 14.827 0 0 1 2.09-3.397 23.897 23.897 0 0 1 2.81-2.744 85.999 85.999 0 0 0 2.809-2.548c.871-.871 1.568-1.786 2.091-2.744.566-.958.849-2.069.849-3.332 0-2.09-.827-3.79-2.483-5.096-1.655-1.307-3.941-1.96-6.86-1.96-2.613 0-4.878.436-6.794 1.307-1.917.87-3.55 2.156-4.9 3.854l-4.77-3.397c1.83-2.308 4.16-4.094 6.991-5.357 2.831-1.307 6.141-1.96 9.931-1.96 3.136 0 5.858.479 8.166 1.437 2.309.915 4.095 2.243 5.358 3.985 1.307 1.7 1.96 3.768 1.96 6.207 0 1.83-.283 3.397-.85 4.704a13.275 13.275 0 0 1-2.155 3.463 28.594 28.594 0 0 1-2.81 2.81 79.77 79.77 0 0 0-2.744 2.612c-.871.871-1.59 1.83-2.156 2.875-.566 1.045-.849 2.287-.849 3.724h-6.534Zm3.332 14.83c-1.219 0-2.243-.413-3.07-1.24-.784-.828-1.176-1.808-1.176-2.94 0-1.22.392-2.222 1.176-3.006.827-.784 1.851-1.176 3.07-1.176 1.22 0 2.222.392 3.006 1.176.784.784 1.176 1.786 1.176 3.005 0 1.133-.392 2.113-1.176 2.94-.784.828-1.786 1.242-3.006 1.242Z"/><path fill="url(#i)" d="M323.503 393.56c0-4.247.707-7.949 2.123-11.107 1.415-3.157 3.158-5.988 5.226-8.493a59.639 59.639 0 0 1 7.024-6.86 216.6 216.6 0 0 0 7.023-6.37c2.178-2.178 3.92-4.464 5.227-6.86 1.415-2.395 2.123-5.172 2.123-8.33 0-5.227-2.069-9.473-6.206-12.74-4.138-3.267-9.855-4.9-17.151-4.9-6.533 0-12.195 1.089-16.986 3.267s-8.875 5.39-12.25 9.636l-11.924-8.493c4.574-5.771 10.399-10.235 17.477-13.393 7.078-3.267 15.353-4.9 24.827-4.9 7.84 0 14.645 1.198 20.416 3.593 5.772 2.287 10.236 5.608 13.394 9.963 3.266 4.247 4.9 9.419 4.9 15.517 0 4.573-.708 8.493-2.124 11.76-1.415 3.267-3.212 6.152-5.39 8.657a71.19 71.19 0 0 1-7.023 7.023 200.855 200.855 0 0 0-6.86 6.533 31.06 31.06 0 0 0-5.39 7.187c-1.415 2.613-2.123 5.717-2.123 9.31h-16.333Zm8.329 37.077c-3.048 0-5.607-1.035-7.676-3.104-1.96-2.068-2.94-4.518-2.94-7.35 0-3.048.98-5.553 2.94-7.513 2.069-1.96 4.628-2.94 7.676-2.94 3.049 0 5.554.98 7.514 2.94s2.94 4.465 2.94 7.513c0 2.832-.98 5.282-2.94 7.35-1.96 2.069-4.465 3.104-7.514 3.104Z"/><defs><linearGradient id="a" x1="219.648" x2="219.648" y1="0" y2="468.334" gradientUnits="userSpaceOnUse"><stop stop-color="#9B51E0"/><stop offset="1" stop-color="#720ECF"/></linearGradient><linearGradient id="b" x1="219.648" x2="219.648" y1="0" y2="468.334" gradientUnits="userSpaceOnUse"><stop stop-color="#9B51E0"/><stop offset="1" stop-color="#720ECF"/></linearGradient><linearGradient id="c" x1="219.648" x2="219.648" y1="0" y2="468.334" gradientUnits="userSpaceOnUse"><stop stop-color="#9B51E0"/><stop offset="1" stop-color="#720ECF"/></linearGradient><linearGradient id="d" x1="219.648" x2="219.648" y1="0" y2="468.334" gradientUnits="userSpaceOnUse"><stop stop-color="#9B51E0"/><stop offset="1" stop-color="#720ECF"/></linearGradient><linearGradient id="e" x1="219.648" x2="219.648" y1="0" y2="468.334" gradientUnits="userSpaceOnUse"><stop stop-color="#9B51E0"/><stop offset="1" stop-color="#720ECF"/></linearGradient><linearGradient id="f" x1="219.648" x2="219.648" y1="0" y2="468.334" gradientUnits="userSpaceOnUse"><stop stop-color="#9B51E0"/><stop offset="1" stop-color="#720ECF"/></linearGradient><linearGradient id="g" x1="219.648" x2="219.648" y1="0" y2="468.334" gradientUnits="userSpaceOnUse"><stop stop-color="#9B51E0"/><stop offset="1" stop-color="#720ECF"/></linearGradient><linearGradient id="h" x1="219.648" x2="219.648" y1="0" y2="468.334" gradientUnits="userSpaceOnUse"><stop stop-color="#9B51E0"/><stop offset="1" stop-color="#720ECF"/></linearGradient><linearGradient id="i" x1="219.648" x2="219.648" y1="0" y2="468.334" gradientUnits="userSpaceOnUse"><stop stop-color="#9B51E0"/><stop offset="1" stop-color="#720ECF"/></linearGradient></defs></svg>