<svg width="440" height="469" viewBox="0 0 440 469" fill="none" xmlns="http://www.w3.org/2000/svg">
<path d="M171.964 258.317C171.964 251.737 173.06 246.001 175.254 241.108C177.447 236.215 180.146 231.829 183.352 227.948C186.726 224.068 190.354 220.525 194.234 217.319C198.115 213.945 201.742 210.655 205.116 207.449C208.491 204.075 211.19 200.532 213.215 196.82C215.408 193.108 216.505 188.806 216.505 183.913C216.505 175.815 213.299 169.235 206.888 164.173C200.477 159.112 191.619 156.581 180.315 156.581C170.192 156.581 161.419 158.268 153.995 161.643C146.572 165.017 140.245 169.994 135.015 176.574L116.54 163.414C123.626 154.472 132.653 147.555 143.619 142.662C154.586 137.6 167.408 135.07 182.087 135.07C194.234 135.07 204.779 136.926 213.721 140.637C222.663 144.18 229.58 149.326 234.473 156.075C239.535 162.655 242.065 170.669 242.065 180.117C242.065 187.203 240.969 193.277 238.775 198.338C236.582 203.4 233.798 207.871 230.424 211.751C227.05 215.632 223.422 219.259 219.542 222.634C215.83 226.008 212.287 229.382 208.913 232.757C205.538 236.131 202.754 239.843 200.561 243.892C198.368 247.941 197.271 252.75 197.271 258.317H171.964ZM184.87 315.765C180.146 315.765 176.182 314.163 172.976 310.957C169.939 307.751 168.421 303.955 168.421 299.568C168.421 294.844 169.939 290.964 172.976 287.927C176.182 284.89 180.146 283.372 184.87 283.372C189.595 283.372 193.475 284.89 196.512 287.927C199.549 290.964 201.067 294.844 201.067 299.568C201.067 303.955 199.549 307.751 196.512 310.957C193.475 314.163 189.595 315.765 184.87 315.765Z" fill="url(#paint0_linear_343_186)"/>
<path d="M311.728 86.4334C311.728 81.8189 312.497 77.796 314.035 74.3647C315.574 70.9334 317.467 67.857 319.715 65.1356C322.081 62.4142 324.625 59.9295 327.347 57.6814C330.068 55.315 332.612 53.0077 334.978 50.7596C337.345 48.3932 339.238 45.9085 340.658 43.3054C342.196 40.7024 342.965 37.6852 342.965 34.2539C342.965 28.5745 340.717 23.96 336.221 20.4103C331.724 16.8607 325.513 15.0859 317.585 15.0859C310.486 15.0859 304.333 16.2691 299.127 18.6355C293.921 21.002 289.484 24.4924 285.816 29.1069L272.86 19.8779C277.829 13.6069 284.159 8.75574 291.85 5.32443C299.541 1.77481 308.534 0 318.827 0C327.347 0 334.742 1.30153 341.013 3.90458C347.284 6.38932 352.135 9.99811 355.566 14.7309C359.116 19.3455 360.891 24.9657 360.891 31.5917C360.891 36.5611 360.121 40.8207 358.583 44.3703C357.045 47.9199 355.093 51.0555 352.726 53.7768C350.36 56.4982 347.816 59.0421 345.095 61.4085C342.492 63.7749 340.007 66.1414 337.641 68.5078C335.274 70.8742 333.322 73.4773 331.784 76.317C330.245 79.1567 329.476 82.5288 329.476 86.4334H311.728ZM320.78 126.722C317.467 126.722 314.686 125.598 312.438 123.35C310.308 121.101 309.243 118.439 309.243 115.363C309.243 112.05 310.308 109.328 312.438 107.199C314.686 105.069 317.467 104.004 320.78 104.004C324.093 104.004 326.814 105.069 328.944 107.199C331.074 109.328 332.139 112.05 332.139 115.363C332.139 118.439 331.074 121.101 328.944 123.35C326.814 125.598 324.093 126.722 320.78 126.722Z" fill="url(#paint1_linear_343_186)"/>
<path d="M72.9185 382.819C72.9185 379.779 73.4251 377.129 74.4384 374.869C75.4516 372.609 76.6987 370.582 78.1795 368.79C79.7384 366.997 81.4141 365.36 83.2068 363.879C84.9994 362.321 86.6752 360.801 88.234 359.32C89.7928 357.761 91.0399 356.124 91.9752 354.409C92.9884 352.695 93.4951 350.707 93.4951 348.447C93.4951 344.706 92.0142 341.666 89.0524 339.328C86.0906 336.99 81.9987 335.82 76.7766 335.82C72.1001 335.82 68.0471 336.6 64.6177 338.159C61.1883 339.717 58.2655 342.017 55.8493 345.056L47.3147 338.977C50.5882 334.846 54.7581 331.651 59.8243 329.39C64.8905 327.052 70.8141 325.883 77.595 325.883C83.2068 325.883 88.0781 326.74 92.209 328.455C96.3399 330.092 99.5355 332.469 101.796 335.587C104.134 338.626 105.303 342.329 105.303 346.693C105.303 349.967 104.797 352.773 103.783 355.111C102.77 357.449 101.484 359.515 99.9252 361.307C98.3664 363.1 96.6907 364.776 94.898 366.335C93.1833 367.893 91.5465 369.452 89.9877 371.011C88.4289 372.57 87.1428 374.285 86.1296 376.155C85.1163 378.026 84.6097 380.247 84.6097 382.819H72.9185ZM78.881 409.358C76.6987 409.358 74.867 408.618 73.3861 407.137C71.9832 405.656 71.2817 403.902 71.2817 401.876C71.2817 399.693 71.9832 397.901 73.3861 396.498C74.867 395.095 76.6987 394.393 78.881 394.393C81.0634 394.393 82.856 395.095 84.259 396.498C85.6619 397.901 86.3634 399.693 86.3634 401.876C86.3634 403.902 85.6619 405.656 84.259 407.137C82.856 408.618 81.0634 409.358 78.881 409.358Z" fill="url(#paint2_linear_343_186)"/>
<path d="M191.014 436.722C191.014 433.101 191.618 429.944 192.825 427.252C194.032 424.559 195.517 422.145 197.281 420.01C199.138 417.875 201.134 415.925 203.27 414.161C205.405 412.304 207.401 410.494 209.258 408.73C211.115 406.873 212.6 404.923 213.714 402.881C214.921 400.838 215.525 398.471 215.525 395.778C215.525 391.322 213.761 387.701 210.233 384.916C206.705 382.13 201.831 380.738 195.61 380.738C190.04 380.738 185.212 381.666 181.127 383.523C177.042 385.38 173.56 388.119 170.682 391.74L160.516 384.498C164.415 379.577 169.382 375.771 175.417 373.078C181.452 370.293 188.508 368.9 196.585 368.9C203.27 368.9 209.072 369.922 213.993 371.964C218.914 373.914 222.72 376.746 225.412 380.459C228.198 384.08 229.59 388.49 229.59 393.689C229.59 397.589 228.987 400.931 227.78 403.716C226.573 406.502 225.041 408.962 223.184 411.097C221.327 413.233 219.331 415.229 217.196 417.086C215.153 418.942 213.204 420.799 211.347 422.656C209.49 424.513 207.958 426.555 206.751 428.784C205.544 431.012 204.941 433.658 204.941 436.722H191.014ZM198.117 468.334C195.517 468.334 193.336 467.452 191.572 465.688C189.9 463.924 189.065 461.835 189.065 459.422C189.065 456.822 189.9 454.687 191.572 453.015C193.336 451.344 195.517 450.509 198.117 450.509C200.716 450.509 202.852 451.344 204.523 453.015C206.194 454.687 207.03 456.822 207.03 459.422C207.03 461.835 206.194 463.924 204.523 465.688C202.852 467.452 200.716 468.334 198.117 468.334Z" fill="url(#paint3_linear_343_186)"/>
<path d="M388.814 250.38C388.814 245.642 389.604 241.511 391.184 237.988C392.763 234.464 394.707 231.305 397.016 228.511C399.445 225.717 402.058 223.165 404.852 220.857C407.647 218.427 410.259 216.058 412.689 213.749C415.119 211.319 417.063 208.768 418.521 206.095C420.1 203.422 420.89 200.324 420.89 196.8C420.89 190.968 418.581 186.23 413.964 182.585C409.348 178.94 402.969 177.118 394.829 177.118C387.539 177.118 381.221 178.333 375.875 180.763C370.529 183.193 365.973 186.777 362.207 191.515L348.903 182.038C354.006 175.599 360.506 170.618 368.403 167.094C376.3 163.449 385.534 161.627 396.104 161.627C404.852 161.627 412.446 162.963 418.885 165.636C425.324 168.188 430.306 171.893 433.829 176.753C437.474 181.492 439.297 187.263 439.297 194.067C439.297 199.169 438.507 203.543 436.927 207.188C435.348 210.833 433.343 214.053 430.913 216.847C428.483 219.642 425.871 222.254 423.077 224.684C420.404 227.114 417.852 229.544 415.422 231.974C412.992 234.404 410.988 237.077 409.408 239.992C407.829 242.908 407.039 246.371 407.039 250.38H388.814ZM398.109 291.75C394.707 291.75 391.852 290.596 389.543 288.288C387.357 285.979 386.263 283.245 386.263 280.087C386.263 276.685 387.357 273.89 389.543 271.703C391.852 269.516 394.707 268.423 398.109 268.423C401.511 268.423 404.305 269.516 406.492 271.703C408.679 273.89 409.773 276.685 409.773 280.087C409.773 283.245 408.679 285.979 406.492 288.288C404.305 290.596 401.511 291.75 398.109 291.75Z" fill="url(#paint4_linear_343_186)"/>
<path d="M17.946 244.547C17.946 242.416 18.3011 240.559 19.0113 238.975C19.7215 237.39 20.5955 235.97 21.6335 234.713C22.7261 233.457 23.9007 232.31 25.1572 231.272C26.4137 230.179 27.5882 229.114 28.6808 228.076C29.7734 226.983 30.6475 225.836 31.303 224.634C32.0132 223.432 32.3683 222.039 32.3683 220.455C32.3683 217.833 31.3304 215.702 29.2544 214.063C27.1785 212.424 24.3104 211.605 20.6502 211.605C17.3724 211.605 14.5316 212.151 12.1279 213.244C9.72416 214.336 7.67553 215.948 5.982 218.079L0 213.817C2.29446 210.922 5.21717 208.682 8.76813 207.098C12.3191 205.459 16.471 204.64 21.2238 204.64C25.1572 204.64 28.5715 205.241 31.4669 206.442C34.3623 207.59 36.6022 209.256 38.1864 211.441C39.8253 213.572 40.6448 216.167 40.6448 219.226C40.6448 221.52 40.2897 223.487 39.5795 225.126C38.8693 226.765 37.9679 228.212 36.8753 229.469C35.7827 230.725 34.6082 231.9 33.3517 232.993C32.1498 234.085 31.0026 235.178 29.91 236.27C28.8174 237.363 27.916 238.565 27.2058 239.876C26.4956 241.187 26.1405 242.744 26.1405 244.547H17.946ZM22.1252 263.148C20.5955 263.148 19.3117 262.629 18.2738 261.591C17.2904 260.553 16.7988 259.324 16.7988 257.904C16.7988 256.374 17.2904 255.118 18.2738 254.134C19.3117 253.151 20.5955 252.659 22.1252 252.659C23.6548 252.659 24.9113 253.151 25.8947 254.134C26.878 255.118 27.3697 256.374 27.3697 257.904C27.3697 259.324 26.878 260.553 25.8947 261.591C24.9113 262.629 23.6548 263.148 22.1252 263.148Z" fill="url(#paint5_linear_343_186)"/>
<path d="M44.5905 112.738C44.5905 111.218 44.8438 109.893 45.3504 108.763C45.857 107.633 46.4806 106.62 47.221 105.723C48.0004 104.827 48.8383 104.008 49.7346 103.268C50.631 102.489 51.4688 101.729 52.2482 100.988C53.0277 100.209 53.6512 99.3905 54.1188 98.5331C54.6255 97.6757 54.8788 96.682 54.8788 95.5518C54.8788 93.6812 54.1383 92.1614 52.6574 90.9923C51.1766 89.8231 49.1306 89.2386 46.5195 89.2386C44.1813 89.2386 42.1548 89.6283 40.4401 90.4077C38.7254 91.1871 37.264 92.3368 36.0559 93.8566L31.7886 90.8169C33.4254 88.7514 35.5103 87.1536 38.0434 86.0235C40.5765 84.8544 43.5383 84.2698 46.9287 84.2698C49.7346 84.2698 52.1703 84.6985 54.2358 85.5558C56.3012 86.3742 57.899 87.5628 59.0292 89.1217C60.1983 90.6415 60.7828 92.4926 60.7828 94.675C60.7828 96.3118 60.5295 97.7147 60.0229 98.8838C59.5163 100.053 58.8733 101.086 58.0939 101.982C57.3144 102.878 56.4766 103.716 55.5802 104.496C54.7229 105.275 53.9045 106.054 53.1251 106.834C52.3457 107.613 51.7027 108.471 51.196 109.406C50.6894 110.341 50.4361 111.452 50.4361 112.738H44.5905ZM47.5718 126.007C46.4806 126.007 45.5648 125.637 44.8243 124.897C44.1228 124.156 43.7721 123.28 43.7721 122.266C43.7721 121.175 44.1228 120.279 44.8243 119.577C45.5648 118.876 46.4806 118.525 47.5718 118.525C48.6629 118.525 49.5593 118.876 50.2607 119.577C50.9622 120.279 51.313 121.175 51.313 122.266C51.313 123.28 50.9622 124.156 50.2607 124.897C49.5593 125.637 48.6629 126.007 47.5718 126.007Z" fill="url(#paint6_linear_343_186)"/>
<path d="M155.158 57.2181C155.158 55.5194 155.442 54.0385 156.008 52.7754C156.574 51.5123 157.271 50.3799 158.098 49.3781C158.97 48.3763 159.906 47.4616 160.908 46.6341C161.91 45.763 162.846 44.9136 163.717 44.0861C164.588 43.215 165.285 42.3003 165.808 41.3421C166.374 40.3839 166.657 39.2732 166.657 38.0101C166.657 35.9194 165.83 34.2208 164.174 32.9141C162.519 31.6074 160.233 30.9541 157.314 30.9541C154.701 30.9541 152.436 31.3896 150.52 32.2607C148.603 33.1319 146.97 34.4168 145.62 36.1154L140.85 32.7181C142.68 30.4096 145.01 28.6239 147.841 27.3608C150.672 26.0541 153.982 25.4008 157.772 25.4008C160.908 25.4008 163.63 25.8799 165.938 26.8381C168.247 27.7528 170.033 29.0812 171.296 30.8234C172.603 32.5221 173.256 34.591 173.256 37.0301C173.256 38.8594 172.973 40.4274 172.406 41.7341C171.84 43.0408 171.122 44.195 170.251 45.1968C169.379 46.1985 168.443 47.135 167.441 48.0061C166.483 48.8772 165.568 49.7483 164.697 50.6194C163.826 51.4905 163.107 52.4488 162.541 53.4941C161.975 54.5394 161.692 55.7808 161.692 57.2181H155.158ZM158.49 72.0488C157.271 72.0488 156.247 71.635 155.42 70.8074C154.636 69.9799 154.244 68.9999 154.244 67.8674C154.244 66.6479 154.636 65.6461 155.42 64.8621C156.247 64.0781 157.271 63.6861 158.49 63.6861C159.71 63.6861 160.712 64.0781 161.496 64.8621C162.28 65.6461 162.672 66.6479 162.672 67.8674C162.672 68.9999 162.28 69.9799 161.496 70.8074C160.712 71.635 159.71 72.0488 158.49 72.0488Z" fill="url(#paint7_linear_343_186)"/>
<path d="M323.503 393.56C323.503 389.313 324.21 385.611 325.626 382.453C327.041 379.296 328.784 376.465 330.852 373.96C333.03 371.456 335.371 369.169 337.876 367.1C340.38 364.922 342.721 362.799 344.899 360.73C347.077 358.552 348.819 356.266 350.126 353.87C351.541 351.475 352.249 348.698 352.249 345.54C352.249 340.313 350.18 336.067 346.043 332.8C341.905 329.533 336.188 327.9 328.892 327.9C322.359 327.9 316.697 328.989 311.906 331.167C307.115 333.345 303.031 336.557 299.656 340.803L287.732 332.31C292.306 326.539 298.131 322.075 305.209 318.917C312.287 315.65 320.562 314.017 330.036 314.017C337.876 314.017 344.681 315.215 350.452 317.61C356.224 319.897 360.688 323.218 363.846 327.573C367.112 331.82 368.746 336.992 368.746 343.09C368.746 347.663 368.038 351.583 366.622 354.85C365.207 358.117 363.41 361.002 361.232 363.507C359.055 366.011 356.714 368.352 354.209 370.53C351.814 372.708 349.527 374.886 347.349 377.063C345.171 379.241 343.375 381.637 341.959 384.25C340.544 386.863 339.836 389.967 339.836 393.56H323.503ZM331.832 430.637C328.784 430.637 326.225 429.602 324.156 427.533C322.196 425.465 321.216 423.015 321.216 420.183C321.216 417.135 322.196 414.63 324.156 412.67C326.225 410.71 328.784 409.73 331.832 409.73C334.881 409.73 337.386 410.71 339.346 412.67C341.306 414.63 342.286 417.135 342.286 420.183C342.286 423.015 341.306 425.465 339.346 427.533C337.386 429.602 334.881 430.637 331.832 430.637Z" fill="url(#paint8_linear_343_186)"/>
<defs>
<linearGradient id="paint0_linear_343_186" x1="219.648" y1="0" x2="219.648" y2="468.334" gradientUnits="userSpaceOnUse">
<stop stop-color="#9B51E0"/>
<stop offset="1" stop-color="#720ECF"/>
</linearGradient>
<linearGradient id="paint1_linear_343_186" x1="219.648" y1="0" x2="219.648" y2="468.334" gradientUnits="userSpaceOnUse">
<stop stop-color="#9B51E0"/>
<stop offset="1" stop-color="#720ECF"/>
</linearGradient>
<linearGradient id="paint2_linear_343_186" x1="219.648" y1="0" x2="219.648" y2="468.334" gradientUnits="userSpaceOnUse">
<stop stop-color="#9B51E0"/>
<stop offset="1" stop-color="#720ECF"/>
</linearGradient>
<linearGradient id="paint3_linear_343_186" x1="219.648" y1="0" x2="219.648" y2="468.334" gradientUnits="userSpaceOnUse">
<stop stop-color="#9B51E0"/>
<stop offset="1" stop-color="#720ECF"/>
</linearGradient>
<linearGradient id="paint4_linear_343_186" x1="219.648" y1="0" x2="219.648" y2="468.334" gradientUnits="userSpaceOnUse">
<stop stop-color="#9B51E0"/>
<stop offset="1" stop-color="#720ECF"/>
</linearGradient>
<linearGradient id="paint5_linear_343_186" x1="219.648" y1="0" x2="219.648" y2="468.334" gradientUnits="userSpaceOnUse">
<stop stop-color="#9B51E0"/>
<stop offset="1" stop-color="#720ECF"/>
</linearGradient>
<linearGradient id="paint6_linear_343_186" x1="219.648" y1="0" x2="219.648" y2="468.334" gradientUnits="userSpaceOnUse">
<stop stop-color="#9B51E0"/>
<stop offset="1" stop-color="#720ECF"/>
</linearGradient>
<linearGradient id="paint7_linear_343_186" x1="219.648" y1="0" x2="219.648" y2="468.334" gradientUnits="userSpaceOnUse">
<stop stop-color="#9B51E0"/>
<stop offset="1" stop-color="#720ECF"/>
</linearGradient>
<linearGradient id="paint8_linear_343_186" x1="219.648" y1="0" x2="219.648" y2="468.334" gradientUnits="userSpaceOnUse">
<stop stop-color="#9B51E0"/>
<stop offset="1" stop-color="#720ECF"/>
</linearGradient>
</defs>
</svg>
