<svg xmlns="http://www.w3.org/2000/svg" width="140" height="53" fill="none"><rect width="41.968" height="41.584" x="5.39" y="5.341" fill="url(#a)" rx="20.792"/><path fill="#121212" d="M56.795 38.994c-1.488 0-2.83-.333-4.025-.999a7.63 7.63 0 0 1-2.79-2.79c-.686-1.195-1.029-2.557-1.029-4.084 0-1.547.343-2.909 1.029-4.084a7.406 7.406 0 0 1 2.79-2.761c1.175-.666 2.517-1 4.025-1 1.528 0 2.88.334 4.054 1a7.138 7.138 0 0 1 2.791 2.761c.686 1.175 1.028 2.537 1.028 4.084 0 1.527-.343 2.889-1.028 4.083a7.346 7.346 0 0 1-2.79 2.791c-1.196.666-2.547.999-4.055.999Zm0-1.851c1.116 0 2.105-.245 2.967-.734a5.402 5.402 0 0 0 2.027-2.116c.51-.92.764-1.978.764-3.172 0-1.215-.255-2.272-.764-3.173a5.198 5.198 0 0 0-2.027-2.086c-.861-.51-1.84-.764-2.938-.764-1.096 0-2.075.255-2.937.764a5.4 5.4 0 0 0-2.057 2.086c-.509.9-.764 1.958-.764 3.173 0 1.194.255 2.252.764 3.172.51.901 1.195 1.606 2.057 2.116.861.49 1.83.734 2.908.734Zm18.418 1.85c-1.488 0-2.83-.332-4.024-.998a7.628 7.628 0 0 1-2.791-2.79c-.686-1.195-1.028-2.557-1.028-4.084 0-1.547.342-2.909 1.028-4.084a7.405 7.405 0 0 1 2.79-2.761c1.176-.666 2.517-1 4.025-1 1.528 0 2.88.334 4.054 1a7.137 7.137 0 0 1 2.791 2.761c.686 1.175 1.028 2.537 1.028 4.084 0 1.527-.342 2.889-1.028 4.083a7.345 7.345 0 0 1-2.79 2.791c-1.195.666-2.547.999-4.055.999Zm0-1.85c1.117 0 2.106-.245 2.967-.734a5.402 5.402 0 0 0 2.027-2.116c.51-.92.764-1.978.764-3.172 0-1.215-.254-2.272-.764-3.173a5.198 5.198 0 0 0-2.027-2.086c-.861-.51-1.84-.764-2.937-.764-1.097 0-2.076.255-2.938.764a5.4 5.4 0 0 0-2.056 2.086c-.51.9-.764 1.958-.764 3.173 0 1.194.254 2.252.764 3.172.509.901 1.194 1.606 2.056 2.116.862.49 1.831.734 2.908.734Zm13.777-2.291.059-2.674 9.606-8.754h2.556l-6.786 6.492-1.175.999-4.26 3.937Zm-1.645 3.995V17.049h2.086v21.798h-2.086Zm11.956 0-6.433-8.02 1.351-1.616 7.638 9.636h-2.556Zm11.636.147c-1.606 0-3.016-.333-4.23-.999a7.509 7.509 0 0 1-2.85-2.79c-.685-1.195-1.028-2.557-1.028-4.084 0-1.528.323-2.88.969-4.054a7.322 7.322 0 0 1 2.703-2.762c1.156-.685 2.448-1.028 3.878-1.028 1.449 0 2.732.333 3.848.999 1.136.646 2.027 1.567 2.674 2.761.646 1.175.969 2.537.969 4.084 0 .098-.01.205-.029.323v.323h-13.426V30.21h12.309l-.822.617c0-1.116-.245-2.106-.735-2.967a5.17 5.17 0 0 0-1.938-2.057c-.823-.49-1.773-.734-2.85-.734-1.058 0-2.008.245-2.85.734a5.106 5.106 0 0 0-1.968 2.057c-.47.881-.705 1.89-.705 3.026v.323c0 1.175.255 2.213.764 3.114a5.705 5.705 0 0 0 2.174 2.086c.94.49 2.007.734 3.202.734.94 0 1.811-.166 2.614-.5a5.441 5.441 0 0 0 2.116-1.527l1.175 1.351a6.6 6.6 0 0 1-2.585 1.88c-1.019.431-2.145.647-3.379.647Zm17.319 0c-1.469 0-2.791-.333-3.966-.999a7.255 7.255 0 0 1-2.733-2.761c-.665-1.195-.998-2.566-.998-4.113 0-1.567.333-2.938.998-4.113a7.045 7.045 0 0 1 2.733-2.732c1.175-.666 2.497-1 3.966-1 1.351 0 2.555.305 3.613.912 1.077.607 1.929 1.498 2.556 2.673.646 1.155.969 2.575.969 4.26 0 1.664-.313 3.084-.94 4.26-.627 1.175-1.479 2.075-2.556 2.702-1.057.607-2.272.91-3.642.91Zm.146-1.851c1.097 0 2.076-.245 2.938-.734a5.347 5.347 0 0 0 2.057-2.116c.509-.92.763-1.978.763-3.172 0-1.215-.254-2.272-.763-3.173a5.15 5.15 0 0 0-2.057-2.086c-.862-.51-1.841-.764-2.938-.764-1.077 0-2.046.255-2.908.764a5.395 5.395 0 0 0-2.056 2.086c-.51.9-.764 1.958-.764 3.173 0 1.194.254 2.252.764 3.172a5.61 5.61 0 0 0 2.056 2.116c.862.49 1.831.734 2.908.734Zm5.817 1.704v-4.642l.206-3.114-.294-3.114V17.05h2.086v21.798h-1.998Z"/><path fill="#fff" d="M15.13 37.382c-.431 0-.872-.03-1.323-.088-1.233-.157-2.144-.519-2.732-1.087-.568-.568-.852-1.185-.852-1.85 0-.725.324-1.381.97-1.969.646-.607 1.557-.91 2.732-.91.783 0 1.635.156 2.556.47.509.176 1.116.47 1.821.88.705.412 1.518.843 2.439 1.293.979-.94 1.87-2.105 2.673-3.496a77.743 77.743 0 0 0 2.438-4.465 97.793 97.793 0 0 1 2.644-4.818 29.824 29.824 0 0 1 3.32-4.524l1.704-1.91a26.516 26.516 0 0 0-2.262-.264 24.49 24.49 0 0 0-2.439-.117c-1.057 0-2.144.058-3.26.176a28.209 28.209 0 0 0-3.35.5c-1.84.391-3.398 1.018-4.67 1.88-1.274.861-2.243 1.801-2.909 2.82-.646.998-.97 1.939-.97 2.82 0 .607.167 1.155.5 1.645.352.47.871.813 1.557 1.028.43.137.871.206 1.322.206.666 0 1.253-.137 1.763-.411.509-.275.94-.608 1.292-1 .353-.41.607-.802.764-1.174.176-.372.255-.647.235-.823 0-.137.098-.206.294-.206.196 0 .294.147.294.441v.03c0 .802-.245 1.498-.735 2.085a4.78 4.78 0 0 1-1.85 1.352c-.725.313-1.46.47-2.204.47-.47 0-.96-.079-1.469-.235-1.057-.372-1.84-.911-2.35-1.616a4.051 4.051 0 0 1-.764-2.38c0-.803.216-1.625.647-2.467.45-.862 1.106-1.675 1.968-2.439.862-.783 1.929-1.459 3.202-2.027 1.293-.568 2.781-.97 4.465-1.204.901-.137 1.792-.235 2.674-.294a38.49 38.49 0 0 1 2.555-.088c1.136 0 2.243.059 3.32.176 1.097.098 2.125.255 3.085.47.274-.235.548-.44.822-.617a6.23 6.23 0 0 1 .794-.411c.137-.059.254-.098.352-.117.098-.02.176-.03.235-.03.117 0 .176.04.176.118 0 .098-.147.254-.44.47a4.173 4.173 0 0 0-.559.47c-.176.156-.283.274-.323.352 1.998.51 3.614 1.214 4.848 2.115 1.253.882 1.88 1.93 1.88 3.144 0 .627-.206 1.312-.617 2.056a4.99 4.99 0 0 1-1.792 1.763 9.756 9.756 0 0 1-2.438.97c-.862.195-1.665.313-2.41.352.647.196 1.352.49 2.116.881a9.793 9.793 0 0 1 2.144 1.38c.666.55 1.107 1.195 1.322 1.94.137.47.206.95.206 1.44a4.71 4.71 0 0 1-.91 2.82c-.588.842-1.382 1.566-2.38 2.173a12.51 12.51 0 0 1-3.232 1.352c-1.175.333-2.34.5-3.496.5-.43 0-.871-.03-1.322-.089-1.88-.235-3.437-.529-4.67-.881-1.215-.353-2.282-.744-3.203-1.175-1.9 1.43-3.966 2.144-6.199 2.144Zm14.982-.852c1.214 0 2.32-.186 3.32-.558.998-.372 1.86-.862 2.585-1.469.744-.607 1.312-1.283 1.704-2.027.41-.744.617-1.479.617-2.203 0-.686-.206-1.351-.617-1.998-.412-.646-1.058-1.185-1.94-1.616a14.548 14.548 0 0 0-2.379-.91c-.803-.255-1.498-.47-2.086-.647-.587-.195-.93-.391-1.028-.587 0-.235.098-.392.294-.47.215-.098.49-.147.822-.147.392 0 .862.03 1.41.088.549.059 1.127.088 1.734.088.627 0 1.263-.137 1.91-.411a7.324 7.324 0 0 0 1.82-1.146 6.626 6.626 0 0 0 1.323-1.586c.352-.588.529-1.185.529-1.792 0-.549-.187-1.087-.559-1.616-.372-.529-.989-.989-1.85-1.38a15.065 15.065 0 0 0-2.791-.94 54.17 54.17 0 0 0-2.938 4.553 392.84 392.84 0 0 0-2.938 5.082 98.983 98.983 0 0 1-2.967 4.847c-.999 1.528-1.997 2.84-2.996 3.937-.235.255-.421.45-.559.587a23.9 23.9 0 0 0-.558.5c.92.372 1.969.724 3.144 1.057 1.175.333 2.516.568 4.024.706.157.02.314.029.47.029.177.02.343.03.5.03Zm-15.57-.059c1.097.06 2.095-.068 2.996-.381a9.782 9.782 0 0 0 2.556-1.381L17.98 33.68a18.341 18.341 0 0 0-2.262-1c-.568-.195-1.087-.293-1.557-.293-.725 0-1.273.196-1.645.588-.372.372-.558.803-.558 1.292 0 .51.215.999.646 1.469.43.45 1.077.695 1.939.734Z"/><defs><linearGradient id="a" x1="26.374" x2="26.374" y1="5.341" y2="46.926" gradientUnits="userSpaceOnUse"><stop stop-color="#9B51E0"/><stop offset="1" stop-color="#720ECF"/></linearGradient></defs></svg>