<svg xmlns="http://www.w3.org/2000/svg" width="18" height="18" fill="none"><path fill="url(#a)" d="M2 2h6c.55 0 1-.45 1-1s-.45-1-1-1H2C.9 0 0 .9 0 2v14c0 1.1.9 2 2 2h6c.55 0 1-.45 1-1s-.45-1-1-1H2V2Z"/><path fill="url(#b)" d="m17.65 8.65-2.79-2.79a.501.501 0 0 0-.86.35V8H7c-.55 0-1 .45-1 1s.45 1 1 1h7v1.79c0 .45.54.67.85.35l2.79-2.79c.2-.19.2-.51.01-.7Z"/><defs><linearGradient id="a" x1="4.5" x2="4.5" y1="0" y2="18" gradientUnits="userSpaceOnUse"><stop stop-color="#9B51E0"/><stop offset="1" stop-color="#720ECF"/></linearGradient><linearGradient id="b" x1="11.896" x2="11.896" y1="5.708" y2="12.292" gradientUnits="userSpaceOnUse"><stop stop-color="#9B51E0"/><stop offset="1" stop-color="#720ECF"/></linearGradient></defs></svg>