<svg xmlns="http://www.w3.org/2000/svg" width="22" height="22" fill="none"><g clip-path="url(#a)"><path fill="url(#b)" d="M11 11a3.666 3.666 0 0 0 3.666-3.667A3.666 3.666 0 0 0 11 3.667a3.666 3.666 0 0 0-3.667 3.666A3.666 3.666 0 0 0 11 11Zm0 1.833c-2.448 0-7.333 1.229-7.333 3.667v.917a.92.92 0 0 0 .916.916h12.834a.92.92 0 0 0 .916-.916V16.5c0-2.438-4.886-3.667-7.333-3.667Z"/></g><defs><linearGradient id="b" x1="11" x2="11" y1="3.667" y2="18.333" gradientUnits="userSpaceOnUse"><stop stop-color="#9B51E0"/><stop offset="1" stop-color="#720ECF"/></linearGradient><clipPath id="a"><path fill="#fff" d="M0 0h22v22H0z"/></clipPath></defs></svg>