<svg width="42" height="42" viewBox="0 0 42 42" fill="none" xmlns="http://www.w3.org/2000/svg">
<rect width="41.9677" height="41.5845" rx="20.7923" fill="url(#paint0_linear_536_324)"/>
<path d="M9.73918 32.0411C9.30831 32.0411 8.86765 32.0117 8.4172 31.953C7.18335 31.7963 6.27265 31.434 5.6851 30.866C5.11714 30.298 4.83316 29.6811 4.83316 29.0152C4.83316 28.2906 5.15631 27.6345 5.80261 27.047C6.44892 26.4398 7.35961 26.1363 8.53471 26.1363C9.31811 26.1363 10.17 26.2929 11.0905 26.6063C11.5997 26.7826 12.2069 27.0763 12.9119 27.4876C13.617 27.8989 14.4298 28.3298 15.3503 28.7802C16.3295 27.8401 17.2206 26.6748 18.0236 25.2843C18.8462 23.8938 19.6589 22.4053 20.4619 20.8189C21.2845 19.213 22.1658 17.607 23.1059 16.0011C24.0655 14.3951 25.1721 12.8871 26.4255 11.4769L28.1294 9.56742C27.4048 9.44991 26.6508 9.36178 25.8674 9.30302C25.084 9.22468 24.2712 9.18551 23.429 9.18551C22.3714 9.18551 21.2845 9.24427 20.1681 9.36178C19.0518 9.4597 17.9355 9.62617 16.8191 9.86119C14.9781 10.2529 13.4211 10.8796 12.1481 11.7413C10.8751 12.6031 9.90565 13.5432 9.23977 14.5616C8.59346 15.5604 8.27031 16.5005 8.27031 17.3818C8.27031 17.9889 8.43678 18.5373 8.76973 19.0269C9.12226 19.497 9.64126 19.8397 10.3267 20.0551C10.7576 20.1922 11.1983 20.2608 11.6487 20.2608C12.3146 20.2608 12.9021 20.1237 13.4114 19.8495C13.9206 19.5753 14.3514 19.2424 14.704 18.8507C15.0565 18.4394 15.3111 18.0477 15.4678 17.6756C15.644 17.3035 15.7224 17.0293 15.7028 16.853C15.7028 16.7159 15.8007 16.6474 15.9966 16.6474C16.1924 16.6474 16.2903 16.7942 16.2903 17.088V17.1174C16.2903 17.9204 16.0455 18.6156 15.5559 19.2032C15.0663 19.7907 14.4494 20.2412 13.7051 20.5546C12.9805 20.8679 12.246 21.0246 11.5018 21.0246C11.0318 21.0246 10.5422 20.9463 10.033 20.7896C8.97537 20.4175 8.19197 19.8789 7.68277 19.1738C7.17356 18.4492 6.91895 17.656 6.91895 16.7942C6.91895 15.9913 7.13439 15.1687 7.56526 14.3266C8.01571 13.4648 8.6718 12.652 9.53354 11.8882C10.3953 11.1048 11.4627 10.4292 12.7357 9.86119C14.0283 9.29323 15.5167 8.89174 17.201 8.65672C18.1019 8.51962 18.9931 8.4217 19.8744 8.36295C20.7557 8.30419 21.6076 8.27481 22.4302 8.27481C23.5661 8.27481 24.6727 8.33357 25.7498 8.45108C26.8466 8.549 27.8748 8.70568 28.8345 8.92112C29.1087 8.6861 29.3828 8.48045 29.657 8.30419C29.9508 8.12793 30.2152 7.99083 30.4502 7.89291C30.5873 7.83415 30.7048 7.79498 30.8028 7.7754C30.9007 7.75581 30.979 7.74602 31.0378 7.74602C31.1553 7.74602 31.214 7.78519 31.214 7.86353C31.214 7.96145 31.0671 8.11813 30.7734 8.33357C30.5775 8.47066 30.3915 8.62734 30.2152 8.80361C30.0389 8.96029 29.9312 9.0778 29.8921 9.15614C31.8897 9.66534 33.5055 10.3704 34.7393 11.2713C35.9928 12.1526 36.6195 13.2004 36.6195 14.4147C36.6195 15.0414 36.4138 15.7269 36.0025 16.4711C35.5717 17.1957 34.9743 17.7833 34.2105 18.2337C33.4467 18.6646 32.6339 18.9878 31.7722 19.2032C30.9105 19.399 30.1075 19.5166 29.3633 19.5557C30.0096 19.7516 30.7146 20.0453 31.4784 20.437C32.2618 20.8092 32.9767 21.2694 33.623 21.8178C34.2889 22.3662 34.7295 23.0125 34.945 23.7567C35.0821 24.2267 35.1506 24.7066 35.1506 25.1962C35.1506 26.2342 34.847 27.1743 34.2399 28.0164C33.6524 28.8586 32.8592 29.5832 31.8603 30.1903C30.8811 30.7779 29.8039 31.2283 28.6288 31.5417C27.4537 31.8746 26.2884 32.0411 25.1329 32.0411C24.7021 32.0411 24.2614 32.0117 23.8109 31.953C21.9308 31.718 20.3738 31.4242 19.1399 31.0716C17.9257 30.7191 16.8583 30.3274 15.9378 29.8966C14.0381 31.3263 11.9719 32.0411 9.73918 32.0411ZM24.7216 31.1892C25.9359 31.1892 27.0425 31.0031 28.0413 30.631C29.0401 30.2589 29.9018 29.7693 30.6265 29.1621C31.3707 28.555 31.9387 27.8793 32.3304 27.1351C32.7417 26.3909 32.9473 25.6564 32.9473 24.9318C32.9473 24.2463 32.7417 23.5804 32.3304 22.9341C31.9191 22.2878 31.2728 21.7492 30.3915 21.3184C29.6277 20.9463 28.8345 20.6427 28.0119 20.4077C27.2089 20.1531 26.5137 19.9376 25.9261 19.7614C25.3386 19.5655 24.9958 19.3697 24.8979 19.1738C24.8979 18.9388 24.9958 18.7821 25.1917 18.7038C25.4071 18.6059 25.6813 18.5569 26.0142 18.5569C26.4059 18.5569 26.876 18.5863 27.4244 18.645C27.9727 18.7038 28.5505 18.7332 29.1576 18.7332C29.7843 18.7332 30.4208 18.5961 31.0671 18.3219C31.733 18.0281 32.3402 17.6462 32.8885 17.1762C33.4369 16.6865 33.8776 16.1577 34.2105 15.5898C34.5631 15.0022 34.7393 14.4049 34.7393 13.7978C34.7393 13.2494 34.5533 12.7108 34.1811 12.182C33.809 11.6532 33.1921 11.193 32.3304 10.8013C31.4686 10.4096 30.5384 10.0962 29.5395 9.86119C28.5603 11.2126 27.581 12.7304 26.6018 14.4147C25.6225 16.0794 24.6433 17.7735 23.6641 19.497C22.6848 21.2009 21.6958 22.8166 20.6969 24.3442C19.6981 25.8719 18.6993 27.184 17.7004 28.2808C17.4654 28.5354 17.2794 28.7313 17.1423 28.8683C17.0052 28.9859 16.8191 29.1523 16.5841 29.3678C17.5046 29.7399 18.5524 30.0924 19.7275 30.4253C20.9026 30.7583 22.2441 30.9933 23.7522 31.1304C23.9089 31.15 24.0655 31.1598 24.2222 31.1598C24.3985 31.1794 24.565 31.1892 24.7216 31.1892ZM9.15163 31.1304C10.2484 31.1892 11.2472 31.0619 12.1481 30.7485C13.0686 30.4156 13.9206 29.9553 14.704 29.3678C14.0185 29.0348 13.3134 28.6921 12.5888 28.3396C11.8837 27.9674 11.1297 27.6345 10.3267 27.3407C9.75877 27.1449 9.23977 27.047 8.76973 27.047C8.04509 27.047 7.49671 27.2428 7.1246 27.6345C6.75248 28.0066 6.56643 28.4375 6.56643 28.9271C6.56643 29.4363 6.78186 29.9259 7.21273 30.396C7.6436 30.8464 8.2899 31.0912 9.15163 31.1304Z" fill="white"/>
<defs>
<linearGradient id="paint0_linear_536_324" x1="20.9838" y1="0" x2="20.9838" y2="41.5845" gradientUnits="userSpaceOnUse">
<stop stop-color="#9B51E0"/>
<stop offset="1" stop-color="#720ECF"/>
</linearGradient>
</defs>
</svg>
