<svg width="140" height="54" viewBox="0 0 140 54" fill="none" xmlns="http://www.w3.org/2000/svg">
<rect x="5.39026" y="6.20776" width="41.9677" height="41.5845" rx="20.7923" fill="url(#paint0_linear_325_12)"/>
<path d="M56.7951 39.8606C55.3066 39.8606 53.9651 39.5276 52.7704 38.8617C51.5953 38.1763 50.665 37.246 49.9795 36.0709C49.2941 34.8762 48.9513 33.5151 48.9513 31.9874C48.9513 30.4402 49.2941 29.0791 49.9795 27.904C50.665 26.7289 51.5953 25.8084 52.7704 25.1425C53.9455 24.4766 55.2871 24.1437 56.7951 24.1437C58.3227 24.1437 59.6741 24.4766 60.8492 25.1425C62.0438 25.8084 62.9741 26.7289 63.64 27.904C64.3255 29.0791 64.6682 30.4402 64.6682 31.9874C64.6682 33.5151 64.3255 34.8762 63.64 36.0709C62.9741 37.246 62.0438 38.1763 60.8492 38.8617C59.6545 39.5276 58.3031 39.8606 56.7951 39.8606ZM56.7951 38.0098C57.9114 38.0098 58.9005 37.765 59.7622 37.2754C60.6239 36.7662 61.2996 36.0611 61.7892 35.1602C62.2985 34.2397 62.5531 33.1821 62.5531 31.9874C62.5531 30.7732 62.2985 29.7156 61.7892 28.8147C61.2996 27.9138 60.6239 27.2185 59.7622 26.7289C58.9005 26.2197 57.9212 25.9651 56.8245 25.9651C55.7277 25.9651 54.7485 26.2197 53.8867 26.7289C53.025 27.2185 52.3395 27.9138 51.8303 28.8147C51.3211 29.7156 51.0665 30.7732 51.0665 31.9874C51.0665 33.1821 51.3211 34.2397 51.8303 35.1602C52.3395 36.0611 53.025 36.7662 53.8867 37.2754C54.7485 37.765 55.7179 38.0098 56.7951 38.0098ZM75.2133 39.8606C73.7249 39.8606 72.3833 39.5276 71.1886 38.8617C70.0135 38.1763 69.0832 37.246 68.3978 36.0709C67.7123 34.8762 67.3696 33.5151 67.3696 31.9874C67.3696 30.4402 67.7123 29.0791 68.3978 27.904C69.0832 26.7289 70.0135 25.8084 71.1886 25.1425C72.3637 24.4766 73.7053 24.1437 75.2133 24.1437C76.7409 24.1437 78.0923 24.4766 79.2674 25.1425C80.4621 25.8084 81.3924 26.7289 82.0582 27.904C82.7437 29.0791 83.0865 30.4402 83.0865 31.9874C83.0865 33.5151 82.7437 34.8762 82.0582 36.0709C81.3924 37.246 80.4621 38.1763 79.2674 38.8617C78.0727 39.5276 76.7214 39.8606 75.2133 39.8606ZM75.2133 38.0098C76.3297 38.0098 77.3187 37.765 78.1804 37.2754C79.0422 36.7662 79.7179 36.0611 80.2075 35.1602C80.7167 34.2397 80.9713 33.1821 80.9713 31.9874C80.9713 30.7732 80.7167 29.7156 80.2075 28.8147C79.7179 27.9138 79.0422 27.2185 78.1804 26.7289C77.3187 26.2197 76.3395 25.9651 75.2427 25.9651C74.1459 25.9651 73.1667 26.2197 72.305 26.7289C71.4432 27.2185 70.7578 27.9138 70.2485 28.8147C69.7393 29.7156 69.4847 30.7732 69.4847 31.9874C69.4847 33.1821 69.7393 34.2397 70.2485 35.1602C70.7578 36.0611 71.4432 36.7662 72.305 37.2754C73.1667 37.765 74.1362 38.0098 75.2133 38.0098ZM88.9899 35.7184L89.0487 33.045L98.6551 24.2906H101.211L94.4247 30.783L93.2496 31.7818L88.9899 35.7184ZM87.3448 39.7137V17.9157H89.4306V39.7137H87.3448ZM99.3014 39.7137L92.8677 31.6937L94.2191 30.0779L101.857 39.7137H99.3014ZM110.937 39.8606C109.331 39.8606 107.921 39.5276 106.707 38.8617C105.493 38.1763 104.543 37.246 103.857 36.0709C103.172 34.8762 102.829 33.5151 102.829 31.9874C102.829 30.4598 103.152 29.1085 103.798 27.9334C104.464 26.7583 105.365 25.8378 106.501 25.1719C107.657 24.4864 108.949 24.1437 110.379 24.1437C111.828 24.1437 113.111 24.4766 114.227 25.1425C115.363 25.7888 116.254 26.7093 116.901 27.904C117.547 29.0791 117.87 30.4402 117.87 31.9874C117.87 32.0854 117.86 32.1931 117.841 32.3106C117.841 32.4085 117.841 32.5162 117.841 32.6337H104.415V31.0767H116.724L115.902 31.6937C115.902 30.5773 115.657 29.5883 115.167 28.7265C114.697 27.8452 114.051 27.1598 113.229 26.6701C112.406 26.1805 111.456 25.9357 110.379 25.9357C109.321 25.9357 108.371 26.1805 107.529 26.6701C106.687 27.1598 106.031 27.8452 105.561 28.7265C105.091 29.6079 104.856 30.6165 104.856 31.7524V32.0756C104.856 33.2507 105.111 34.2887 105.62 35.1896C106.149 36.0709 106.873 36.7662 107.794 37.2754C108.734 37.765 109.801 38.0098 110.996 38.0098C111.936 38.0098 112.807 37.8433 113.61 37.5104C114.433 37.1774 115.138 36.6682 115.726 35.9828L116.901 37.3341C116.215 38.1567 115.354 38.7834 114.316 39.2143C113.297 39.6451 112.171 39.8606 110.937 39.8606ZM128.256 39.8606C126.787 39.8606 125.465 39.5276 124.29 38.8617C123.134 38.1959 122.223 37.2754 121.557 36.1003C120.892 34.9056 120.559 33.5346 120.559 31.9874C120.559 30.4206 120.892 29.0497 121.557 27.8746C122.223 26.6995 123.134 25.7888 124.29 25.1425C125.465 24.4766 126.787 24.1437 128.256 24.1437C129.607 24.1437 130.811 24.4472 131.869 25.0544C132.946 25.6615 133.798 26.5526 134.425 27.7277C135.071 28.8832 135.394 30.3031 135.394 31.9874C135.394 33.6522 135.081 35.0721 134.454 36.2472C133.827 37.4222 132.975 38.3232 131.898 38.9499C130.841 39.557 129.626 39.8606 128.256 39.8606ZM128.402 38.0098C129.499 38.0098 130.478 37.765 131.34 37.2754C132.221 36.7662 132.907 36.0611 133.397 35.1602C133.906 34.2397 134.16 33.1821 134.16 31.9874C134.16 30.7732 133.906 29.7156 133.397 28.8147C132.907 27.9138 132.221 27.2185 131.34 26.7289C130.478 26.2197 129.499 25.9651 128.402 25.9651C127.325 25.9651 126.356 26.2197 125.494 26.7289C124.632 27.2185 123.947 27.9138 123.438 28.8147C122.928 29.7156 122.674 30.7732 122.674 31.9874C122.674 33.1821 122.928 34.2397 123.438 35.1602C123.947 36.0611 124.632 36.7662 125.494 37.2754C126.356 37.765 127.325 38.0098 128.402 38.0098ZM134.219 39.7137V35.0721L134.425 31.9581L134.131 28.8441V17.9157H136.217V39.7137H134.219Z" fill="#121212"/>
<path d="M15.1294 38.2489C14.6986 38.2489 14.2579 38.2195 13.8075 38.1607C12.5736 38.0041 11.6629 37.6417 11.0754 37.0738C10.5074 36.5058 10.2234 35.8889 10.2234 35.223C10.2234 34.4984 10.5466 33.8423 11.1929 33.2547C11.8392 32.6476 12.7499 32.344 13.925 32.344C14.7084 32.344 15.5603 32.5007 16.4808 32.8141C16.99 32.9903 17.5971 33.2841 18.3022 33.6954C19.0073 34.1067 19.82 34.5375 20.7405 34.988C21.7198 34.0479 22.6109 32.8826 23.4139 31.4921C24.2364 30.1015 25.0492 28.6131 25.8522 27.0267C26.6747 25.4208 27.5561 23.8148 28.4961 22.2088C29.4558 20.6029 30.5623 19.0948 31.8158 17.6847L33.5197 15.7752C32.795 15.6577 32.041 15.5695 31.2576 15.5108C30.4742 15.4324 29.6614 15.3933 28.8193 15.3933C27.7617 15.3933 26.6747 15.452 25.5584 15.5695C24.4421 15.6675 23.3257 15.8339 22.2094 16.069C20.3684 16.4607 18.8114 17.0874 17.5384 17.9491C16.2654 18.8108 15.2959 19.7509 14.63 20.7693C13.9837 21.7682 13.6606 22.7082 13.6606 23.5896C13.6606 24.1967 13.827 24.7451 14.16 25.2347C14.5125 25.7047 15.0315 26.0475 15.717 26.2629C16.1479 26.4 16.5885 26.4685 17.039 26.4685C17.7049 26.4685 18.2924 26.3314 18.8016 26.0573C19.3108 25.7831 19.7417 25.4501 20.0942 25.0584C20.4467 24.6471 20.7013 24.2554 20.858 23.8833C21.0343 23.5112 21.1126 23.237 21.093 23.0608C21.093 22.9237 21.191 22.8551 21.3868 22.8551C21.5827 22.8551 21.6806 23.002 21.6806 23.2958V23.3252C21.6806 24.1281 21.4358 24.8234 20.9462 25.411C20.4565 25.9985 19.8396 26.449 19.0954 26.7623C18.3707 27.0757 17.6363 27.2324 16.8921 27.2324C16.422 27.2324 15.9324 27.154 15.4232 26.9973C14.3656 26.6252 13.5822 26.0866 13.073 25.3816C12.5638 24.6569 12.3092 23.8637 12.3092 23.002C12.3092 22.199 12.5246 21.3765 12.9555 20.5343C13.406 19.6726 14.0621 18.8598 14.9238 18.096C15.7855 17.3126 16.8529 16.6369 18.1259 16.069C19.4185 15.501 20.907 15.0995 22.5913 14.8645C23.4922 14.7274 24.3833 14.6295 25.2646 14.5707C26.146 14.512 26.9979 14.4826 27.8205 14.4826C28.9564 14.4826 30.0629 14.5413 31.1401 14.6588C32.2369 14.7568 33.2651 14.9134 34.2247 15.1289C34.4989 14.8939 34.7731 14.6882 35.0473 14.512C35.3411 14.3357 35.6055 14.1986 35.8405 14.1007C35.9776 14.0419 36.0951 14.0027 36.193 13.9832C36.2909 13.9636 36.3693 13.9538 36.428 13.9538C36.5455 13.9538 36.6043 13.993 36.6043 14.0713C36.6043 14.1692 36.4574 14.3259 36.1636 14.5413C35.9678 14.6784 35.7817 14.8351 35.6055 15.0114C35.4292 15.168 35.3215 15.2856 35.2823 15.3639C37.28 15.8731 38.8957 16.5782 40.1296 17.4791C41.383 18.3604 42.0097 19.4082 42.0097 20.6224C42.0097 21.2492 41.8041 21.9346 41.3928 22.6789C40.9619 23.4035 40.3646 23.9911 39.6008 24.4415C38.837 24.8724 38.0242 25.1955 37.1625 25.411C36.3007 25.6068 35.4977 25.7243 34.7535 25.7635C35.3998 25.9593 36.1049 26.2531 36.8687 26.6448C37.6521 27.0169 38.3669 27.4772 39.0132 28.0255C39.6791 28.5739 40.1198 29.2202 40.3352 29.9644C40.4723 30.4345 40.5409 30.9143 40.5409 31.4039C40.5409 32.4419 40.2373 33.382 39.6302 34.2242C39.0426 35.0663 38.2494 35.791 37.2506 36.3981C36.2714 36.9856 35.1942 37.4361 34.0191 37.7495C32.844 38.0824 31.6787 38.2489 30.5232 38.2489C30.0923 38.2489 29.6517 38.2195 29.2012 38.1607C27.321 37.9257 25.764 37.6319 24.5302 37.2794C23.3159 36.9269 22.2486 36.5352 21.3281 36.1043C19.4283 37.534 17.3621 38.2489 15.1294 38.2489ZM30.1119 37.3969C31.3262 37.3969 32.4327 37.2109 33.4315 36.8388C34.4304 36.4666 35.2921 35.977 36.0167 35.3699C36.761 34.7628 37.3289 34.0871 37.7206 33.3428C38.1319 32.5986 38.3376 31.8642 38.3376 31.1395C38.3376 30.4541 38.1319 29.7882 37.7206 29.1419C37.3094 28.4956 36.663 27.957 35.7817 27.5261C35.0179 27.154 34.2247 26.8504 33.4022 26.6154C32.5992 26.3608 31.9039 26.1454 31.3164 25.9691C30.7288 25.7733 30.3861 25.5774 30.2882 25.3816C30.2882 25.1466 30.3861 24.9899 30.5819 24.9115C30.7974 24.8136 31.0716 24.7647 31.4045 24.7647C31.7962 24.7647 32.2662 24.794 32.8146 24.8528C33.363 24.9115 33.9407 24.9409 34.5479 24.9409C35.1746 24.9409 35.8111 24.8038 36.4574 24.5296C37.1233 24.2359 37.7304 23.854 38.2788 23.3839C38.8272 22.8943 39.2678 22.3655 39.6008 21.7975C39.9533 21.21 40.1296 20.6127 40.1296 20.0055C40.1296 19.4571 39.9435 18.9186 39.5714 18.3898C39.1993 17.861 38.5824 17.4007 37.7206 17.009C36.8589 16.6173 35.9286 16.304 34.9298 16.069C33.9505 17.4203 32.9713 18.9381 31.992 20.6224C31.0128 22.2872 30.0336 23.9813 29.0543 25.7047C28.0751 27.4086 27.086 29.0244 26.0872 30.552C25.0884 32.0796 24.0895 33.3918 23.0907 34.4886C22.8557 34.7432 22.6696 34.939 22.5325 35.0761C22.3954 35.1936 22.2094 35.3601 21.9744 35.5755C22.8949 35.9476 23.9426 36.3002 25.1177 36.6331C26.2928 36.9661 27.6344 37.2011 29.1424 37.3382C29.2991 37.3578 29.4558 37.3675 29.6125 37.3675C29.7887 37.3871 29.9552 37.3969 30.1119 37.3969ZM14.5419 37.3382C15.6386 37.3969 16.6375 37.2696 17.5384 36.9563C18.4589 36.6233 19.3108 36.1631 20.0942 35.5755C19.4087 35.2426 18.7037 34.8998 17.979 34.5473C17.274 34.1752 16.52 33.8423 15.717 33.5485C15.149 33.3526 14.63 33.2547 14.16 33.2547C13.4353 33.2547 12.887 33.4506 12.5149 33.8423C12.1427 34.2144 11.9567 34.6452 11.9567 35.1349C11.9567 35.6441 12.1721 36.1337 12.603 36.6037C13.0339 37.0542 13.6802 37.299 14.5419 37.3382Z" fill="white"/>
<defs>
<linearGradient id="paint0_linear_325_12" x1="26.3741" y1="6.20776" x2="26.3741" y2="47.7923" gradientUnits="userSpaceOnUse">
<stop stop-color="#9B51E0"/>
<stop offset="1" stop-color="#720ECF"/>
</linearGradient>
</defs>
</svg>
